<svg width="180" height="180" xmlns="http://www.w3.org/2000/svg" xmlns:xlink="http://www.w3.org/1999/xlink"><defs><path id="a" d="M0 0h180v180H0z"/></defs><g fill="none" fill-rule="evenodd"><mask id="b" fill="#fff"><use xlink:href="#a"/></mask><use fill="#D8D8D8" fill-rule="nonzero" xlink:href="#a"/><path d="M92.146 68.403l-5.43 13.695c-4.249-2.834-7.548-4.93-9.898-6.286l2.638 9.842-29.226 7.83-1.51-5.634c-3.584 5.255-7.374 9.84-11.371 13.757l-8.566-11.233C38.851 79.463 46.178 66.44 50.766 51.308l14.129-.162c-.029 1.296-.328 2.584-.898 3.864 10.587 4.25 19.97 8.714 28.149 13.393zm-17.608 6.41c-4.737-2.65-9.796-5.106-15.18-7.367-2.171 5.52-4.249 9.888-6.232 13.104l21.412-5.738zm117.713 74.185l-6.072 12.498c-10.773-3.34-20.578-7.88-29.417-13.618-4.694 9.525-10.565 17.97-17.61 25.333l-11.103-8.379c7.43-7.735 13.413-16.156 17.952-25.263-13.053-13.251-22.5-29.777-28.342-49.577l-2.855.765 3.543 13.223c8.401 31.354 9.875 56.189 4.423 74.506l-13.422-3.812c.735-2.666 1.366-5.922 1.892-9.767l-8.352 8.197c-1.86-2.132-3.397-3.76-4.61-4.885-10.157 9.378-20.199 17.679-30.127 24.902L59.4 182.1c1.93-2.61 2.608-4.993 2.03-7.147l-19.466-72.65L89.972 89.44l12.984 48.458-34.56 9.26 6.442 24.042c4.673-3.4 9.55-7.337 14.631-11.812a73.392 73.392 0 0 0-7.112-6.71l9.96-7.903c6.607 5.423 12.924 11.568 18.951 18.435 2.04-14.021-.032-32.576-6.22-55.666l-16.406-61.23 68.368-18.32 3.422 12.772-55.22 14.797 6.06 22.613 51.162-13.709c6.673 27.308 6.707 50.973.1 70.995 8.688 5.778 18.594 10.29 29.717 13.537zm-39.958-68.286L130.13 86.65c4.996 15.84 12.09 28.996 21.286 39.47 3.558-15.77 3.85-30.906.877-45.408zM81.4 111.544l-1.811-6.761-21.036 5.636 1.811 6.762 21.036-5.637zm4.912 18.332l-1.993-7.438-21.036 5.636 1.993 7.438 21.036-5.636z" fill="#4D4D4D" mask="url(#b)"/></g></svg>